# xmcd CD database file
#
# Track frame offsets:
#	150
#	17117
#	32352
#	48368
#	64569
#	81067
#	95787
#	111347
#	127620
#	145342
#	162080
#	182316
#	199442
#
# Disc length: 2873 seconds
#
# Revision: 2
# Processed by: cddbd v1.5.2PL0 Copyright (c) Steve Scherf et al.
# Submitted via: CDex 1.77
#
DISCID=a30b370d
DTITLE=Luke Bryan - Tailgates and Tanlines
DYEAR=2011
DGENRE=Country
TTITLE0=Country Girl (Shake It for Me)
TTITLE1=Kiss Tomorrow Goodbye
TTITLE2=Drunk on You
TTITLE3=Too Damn Young
TTITLE4=I Don't Want This Night to End
TTITLE5=You Don't Know Jack
TTITLE6=Harvest Time
TTITLE7=I Know You're Gonna Be There
TTITLE8=Muckalee Creek Water
TTITLE9=Tailgate Blues
TTITLE10=Been There, Done That
TTITLE11=Faded Away
TTITLE12=I Knew You That Way
EXTD=YEAR: 2011
EXTT0=
EXTT1=
EXTT2=
EXTT3=
EXTT4=
EXTT5=
EXTT6=
EXTT7=
EXTT8=
EXTT9=
EXTT10=
EXTT11=
EXTT12=
PLAYORDER=
